<?xml version="1.0" standalone="no"?>
<!DOCTYPE svg PUBLIC "-//W3C//DTD SVG 20010904//EN"
 "http://www.w3.org/TR/2001/REC-SVG-20010904/DTD/svg10.dtd">
<svg version="1.0" xmlns="http://www.w3.org/2000/svg"
 width="1348.000000pt" height="1348.000000pt" viewBox="0 0 1348.000000 1348.000000"
 preserveAspectRatio="xMidYMid meet">
<metadata>
Created by potrace 1.16, written by Peter Selinger 2001-2019
</metadata>
<g transform="translate(0.000000,1348.000000) scale(0.100000,-0.100000)"
fill="#000000" stroke="none">
<path d="M5285 9276 c-7 -114 -7 -116 28 -214 58 -163 107 -431 107 -587 l0
-55 -189 0 -189 0 -11 -50 c-15 -72 -14 -80 18 -151 77 -170 163 -489 131
-489 -5 0 -10 7 -10 15 0 58 -165 433 -260 591 l-52 85 -202 -5 c-240 -7 -215
-7 -543 0 -152 3 -263 1 -263 -4 0 -17 117 -120 189 -167 40 -26 136 -75 214
-109 161 -70 295 -146 417 -237 102 -75 280 -246 280 -268 0 -14 -197 -388
-237 -450 -14 -22 -18 -23 -96 -17 -174 14 -540 -24 -756 -79 -584 -148 -1066
-485 -1353 -948 -123 -197 -241 -499 -290 -737 -20 -102 -23 -143 -23 -355 0
-191 4 -261 19 -340 68 -367 229 -671 497 -936 l107 -107 -329 -623 c-182
-343 -350 -661 -374 -706 l-44 -82 387 -165 387 -166 25 33 c114 150 259 214
465 204 99 -4 155 -16 560 -121 650 -167 806 -191 1285 -191 333 0 424 7 655
51 498 95 940 314 1276 632 395 375 617 844 686 1457 23 205 23 702 0 895 -60
490 -191 846 -415 1124 -71 88 -72 81 17 122 68 31 154 51 256 60 261 21 460
-131 546 -416 22 -73 23 -91 27 -582 l3 -508 464 0 464 0 4 558 c3 495 5 564
21 616 55 185 162 282 333 301 124 15 238 -30 329 -128 166 -179 265 -539 304
-1107 18 -268 9 -945 -14 -967 -2 -2 -64 12 -137 31 -163 43 -267 61 -424 77
-170 17 -420 5 -577 -27 l-26 -5 52 -129 c30 -73 67 -144 84 -165 19 -20 34
-52 38 -74 5 -30 13 -41 38 -53 17 -9 149 -68 293 -132 l261 -116 74 19 c204
55 470 92 662 90 135 -1 180 -13 86 -23 -232 -25 -594 -114 -885 -219 l-90
-32 -3 -302 -2 -302 30 -16 c64 -33 91 -135 55 -205 -15 -28 -12 -36 75 -255
49 -124 90 -227 90 -230 0 -3 -7 -5 -17 -5 -9 0 -14 -2 -11 -5 3 -4 35 1 70 9
343 79 654 308 887 651 264 390 419 845 483 1420 20 186 17 959 -5 1185 -81
825 -261 1335 -586 1661 -119 119 -213 185 -343 241 -169 73 -305 98 -541 98
-460 0 -795 -105 -997 -314 -25 -25 -47 -46 -51 -46 -3 0 -46 40 -95 88 -75
75 -105 96 -194 140 -123 61 -280 104 -448 122 -166 18 -518 8 -643 -19 -251
-54 -443 -146 -626 -300 l-73 -61 -67 43 c-276 176 -462 258 -700 308 -54 11
-100 22 -102 24 -7 7 388 726 429 780 59 80 235 260 355 363 314 270 627 459
1070 646 268 113 421 207 594 364 136 123 165 112 -294 112 l-395 0 0 -30 c0
-41 -21 -80 -64 -117 -61 -54 -170 -55 -230 -3 l-32 28 -521 -71 -522 -71 -62
-110 c-200 -351 -420 -820 -499 -1061 -25 -78 -46 -111 -35 -55 4 19 27 103
50 185 110 379 257 749 456 1147 l79 158 -429 0 -429 0 -7 -114z m190 -3112
c192 -31 387 -105 542 -207 373 -245 633 -700 692 -1212 80 -698 -118 -1302
-539 -1648 -288 -236 -632 -340 -1125 -339 -291 0 -541 35 -835 117 -320 88
-480 96 -647 29 -36 -14 -66 -24 -68 -22 -3 3 195 372 207 383 3 4 69 -14 145
-38 290 -94 548 -137 816 -137 277 0 502 33 722 105 237 77 391 169 545 324
202 204 299 433 331 781 36 398 -57 699 -293 946 -251 262 -533 382 -881 372
-70 -1 -127 1 -127 5 0 9 287 535 302 554 11 14 63 11 213 -13z m-1348 -86
c-305 -568 -736 -1353 -745 -1356 -11 -3 -52 116 -77 223 -58 246 -32 496 71
695 87 170 228 304 426 405 102 53 322 135 361 135 16 0 10 -17 -36 -102z
m919 -1353 c262 -129 276 -470 26 -603 -110 -59 -210 -76 -432 -76 -172 0
-205 2 -279 22 -77 21 -149 51 -177 73 -8 7 7 45 53 132 97 183 187 301 301
399 51 44 95 63 207 92 11 3 67 3 125 1 95 -4 111 -7 176 -40z"/>
<path d="M6280 9324 c-23 -36 -40 -67 -38 -69 2 -1 203 24 448 56 245 32 451
58 458 59 6 0 12 5 12 10 0 7 -146 10 -419 10 l-419 0 -42 -66z"/>
<path d="M7224 9373 c2 -10 7 -28 11 -40 3 -12 20 -34 36 -48 58 -48 164 -26
188 39 5 11 11 31 15 44 l7 22 -131 0 c-120 0 -131 -1 -126 -17z"/>
<path d="M9200 3472 c0 -18 96 -245 105 -248 5 -2 71 18 145 45 121 44 132 50
110 59 -14 6 -83 35 -155 65 -202 85 -205 86 -205 79z"/>
<path d="M9411 3124 c-30 -13 -57 -26 -58 -28 -4 -3 115 -307 123 -315 2 -2 4
80 4 182 0 103 -3 187 -7 186 -5 0 -33 -11 -62 -25z"/>
</g>
</svg>
